<?xml version="1.0" encoding="UTF-8" standalone="no"?>
<!-- Created with Inkscape (http://www.inkscape.org/) -->

<svg
   width="324.99597mm"
   height="225.16042mm"
   viewBox="0 0 324.99597 225.16042"
   version="1.1"
   id="svg5"
   inkscape:version="1.1.1 (3bf5ae0d25, 2021-09-20)"
   sodipodi:docname="FAUX.svg"
   xmlns:inkscape="http://www.inkscape.org/namespaces/inkscape"
   xmlns:sodipodi="http://sodipodi.sourceforge.net/DTD/sodipodi-0.dtd"
   xmlns="http://www.w3.org/2000/svg"
   xmlns:svg="http://www.w3.org/2000/svg">
  <sodipodi:namedview
     id="namedview7"
     pagecolor="#ffffff"
     bordercolor="#999999"
     borderopacity="1"
     inkscape:pageshadow="0"
     inkscape:pageopacity="0"
     inkscape:pagecheckerboard="0"
     inkscape:document-units="mm"
     showgrid="false"
     showborder="false"
     showguides="true"
     inkscape:guide-bbox="true"
     inkscape:zoom="0.70710678"
     inkscape:cx="747.07105"
     inkscape:cy="601.49593"
     inkscape:window-width="3840"
     inkscape:window-height="2066"
     inkscape:window-x="-11"
     inkscape:window-y="-11"
     inkscape:window-maximized="1"
     inkscape:current-layer="layer1"
     inkscape:rotation="-1"
     fit-margin-top="0"
     fit-margin-left="0"
     fit-margin-right="0"
     fit-margin-bottom="0">
    <sodipodi:guide
       position="30.16271,155.77344"
       orientation="1,0"
       id="guide16952" />
    <sodipodi:guide
       position="294.15074,141.22136"
       orientation="1,0"
       id="guide16954" />
    <sodipodi:guide
       position="127.68821,166.684"
       orientation="0,-1"
       id="guide16956" />
    <sodipodi:guide
       position="5.7063928,120.6602"
       orientation="0,-1"
       id="guide16958" />
    <inkscape:grid
       type="xygrid"
       id="grid16960"
       originx="92.141359"
       originy="16.007292" />
  </sodipodi:namedview>
  <defs
     id="defs2">
    <inkscape:path-effect
       effect="fillet_chamfer"
       id="path-effect41810"
       is_visible="true"
       lpeversion="1"
       satellites_param="F,0,0,1,0,0,0,1 @ F,0,0,1,0,0,0,1 @ F,0,0,1,0,31.75,0,1 @ F,0,0,1,0,0,0,1"
       unit="px"
       method="auto"
       mode="F"
       radius="0"
       chamfer_steps="1"
       flexible="false"
       use_knot_distance="true"
       apply_no_radius="true"
       apply_with_radius="true"
       only_selected="false"
       hide_knots="false" />
    <inkscape:path-effect
       effect="fillet_chamfer"
       id="path-effect41789"
       is_visible="true"
       lpeversion="1"
       satellites_param="F,0,0,1,0,31.75001,0,1 @ F,0,0,1,0,0,0,1 @ F,0,0,1,0,0,0,1 @ F,0,0,1,0,0,0,1"
       unit="px"
       method="auto"
       mode="F"
       radius="0"
       chamfer_steps="1"
       flexible="false"
       use_knot_distance="true"
       apply_no_radius="true"
       apply_with_radius="true"
       only_selected="false"
       hide_knots="false" />
    <rect
       x="-630"
       y="450"
       width="109.99999"
       height="60.000008"
       id="rect19417" />
    <rect
       x="-238"
       y="127"
       width="455.54642"
       height="98.803009"
       id="rect2564" />
    <rect
       x="-238"
       y="127"
       width="455.54642"
       height="98.803009"
       id="rect17258" />
    <rect
       x="-630"
       y="450"
       width="118.57032"
       height="58.261497"
       id="rect22243" />
  </defs>
  <g
     inkscape:label="Taso 1"
     inkscape:groupmode="layer"
     id="layer1"
     transform="translate(92.141355,16.007291)">
    <g
       id="g42102">
      <path
         id="rect39619"
         d="M -15.875005,97.895836 H 156.10417 v 79.375004 a 31.75,31.75 135 0 1 -31.75,31.75 H -15.875005 Z"
         style="fill:#ededed;fill-opacity:1;stroke:#ffffff;stroke-width:0.264583" />
      <path
         id="rect39617"
         d="M 15.875,-15.875 H 156.10416 V 95.25 H -15.87501 V 15.87501 A 31.75001,31.75001 135 0 1 15.875,-15.875 Z"
         style="fill:#eeeeee;fill-opacity:1;stroke:#ffffff;stroke-width:0.264583" />
      <g
         aria-label="FAUX"
         transform="matrix(1.1513597,0,0,1.0775063,207.6442,-124.41051)"
         id="text2562"
         style="font-size:64px;line-height:1.25;font-family:'Copperplate Gothic Bold';-inkscape-font-specification:'Copperplate Gothic Bold, Normal';letter-spacing:14.2402px;white-space:pre;shape-inside:url(#rect2564);stroke:#ffffff">
        <path
           d="m -222.84375,179.07223 v 15.375 q 0,0.96875 0.4375,1.5 0.46875,0.5 1.5625,0.78125 v 1 h -13.3125 v -1 q 1.125,-0.3125 1.5625,-0.8125 0.4375,-0.5 0.4375,-1.46875 v -36.09375 q 0,-0.96875 -0.4375,-1.46875 -0.4375,-0.5 -1.5625,-0.8125 v -1 h 37.75 q 0.9375,0 1.4375,-0.4375 0.5,-0.4375 0.8125,-1.59375 h 1 v 11.03125 h -1 q -0.3125,-1.125 -0.8125,-1.53125 -0.5,-0.4375 -1.4375,-0.4375 h -26.4375 v 10.1875 h 17.28125 q 0.96875,0 1.46875,-0.4375 0.5,-0.46875 0.8125,-1.59375 h 1 v 10.78125 h -1 q -0.3125,-1.09375 -0.8125,-1.53125 -0.5,-0.4375 -1.46875,-0.4375 z"
           id="path42106" />
        <path
           d="m -147.6348,186.85348 h -19.375 l -2.875,6 q -0.59375,1.25 -0.59375,1.96875 0,1.375 2.09375,1.90625 v 1 h -14.125 v -1 q 1.25,-0.25 1.90625,-0.875 0.65625,-0.625 1.5,-2.4375 l 15.6875,-32.78125 q 0.75,-1.5625 0.75,-2.5 0,-1.4375 -1.8125,-2.0625 v -1 h 15.125 v 1 q -1.84375,0.53125 -1.84375,1.84375 0,0.90625 0.59375,2.0625 l 16.25,32.875 q 1.03125,2.09375 1.8125,2.875 0.78125,0.75 2.09375,1 v 1 h -15.6875 v -1 q 2.0625,-0.34375 2.0625,-1.9375 0,-0.65625 -0.625,-1.9375 z m -2.6875,-5.84375 -6.90625,-15.1875 -7,15.1875 z"
           id="path42108" />
        <path
           d="m -72.05085,158.35348 v 23.90625 q 0,6.78125 -2.5,10.15625 -4.5,6.0625 -18.59375,6.0625 -10.1875,0 -15.59375,-3.28125 -3.15625,-1.90625 -4.375,-5.1875 -1.1875,-3.25 -1.1875,-7.75 v -23.90625 q 0,-0.96875 -0.4375,-1.46875 -0.4375,-0.5 -1.5625,-0.8125 v -1 h 13.34375 v 1 q -1.125,0.28125 -1.59375,0.8125 -0.4375,0.5 -0.4375,1.46875 v 21.28125 q 0,3.6875 0.40625,5.46875 0.40625,1.75 1.53125,2.9375 3,3.1875 10.25,3.1875 7.28125,0 10.28125,-3.1875 1.09375,-1.1875 1.5,-2.9375 0.40625,-1.78125 0.40625,-5.46875 v -21.28125 q 0,-0.96875 -0.4375,-1.46875 -0.4375,-0.5 -1.5625,-0.8125 v -1 h 12.5625 v 1 q -1.125,0.3125 -1.5625,0.8125 -0.4375,0.5 -0.4375,1.46875 z"
           id="path42110" />
        <path
           d="m -23.373154,175.50973 12.90625,16.71875 q 2.1250003,2.75 3.0312503,3.5 0.9375,0.75 2.5625,1 v 1 H -21.779404 v -1 q 1.875,-0.375 1.875,-1.625 0,-0.65625 -1.125,-2.125 l -8.21875,-10.5625 -7.8125,10.21875 q -1.28125,1.65625 -1.28125,2.34375 0,1.5625 2.09375,1.75 v 1 h -16.375 v -1 q 1.4375,-0.15625 2.21875,-0.8125 0.8125,-0.65625 3.21875,-3.6875 l 12.875,-16.25 -11.84375,-15.5 q -2.3125,-3.03125 -3.09375,-3.625 -0.75,-0.625 -2.4375,-0.78125 l -0.03125,-1 h 17.125 v 1 q -1.875,0.5 -1.875,1.90625 0,0.75 1.34375,2.5 l 6.6875,8.59375 6.78125,-8.59375 q 1.5,-1.90625 1.5,-2.6875 0,-1.375 -2.15625,-1.71875 v -1 h 16.6562503 v 1 q -1.5,0.15625 -2.15625,0.6875 -0.625,0.5 -3.2812503,3.71875 z"
           id="path42112" />
      </g>
      <path
         id="rect17170"
         style="fill:#b8b8b8;stroke-width:0.264583"
         d="M -61.978645,92.604164 H 202.00936 v 2.645833 H -61.978645 Z" />
      <path
         id="rect17172"
         style="stroke-width:0.264583"
         d="M -61.978645,97.895836 H 202.00936 v 2.645834 H -61.978645 Z" />
      <g
         aria-label="FAUX"
         transform="matrix(1.1513597,0,0,-1.0775063,207.6442,317.68343)"
         id="text17256"
         style="font-size:64px;line-height:1.25;font-family:'Copperplate Gothic Bold';-inkscape-font-specification:'Copperplate Gothic Bold, Normal';letter-spacing:14.2402px;white-space:pre;shape-inside:url(#rect17258);fill:#b6b6b6;stroke:#ffffff">
        <path
           d="m -222.84375,179.07223 v 15.375 q 0,0.96875 0.4375,1.5 0.46875,0.5 1.5625,0.78125 v 1 h -13.3125 v -1 q 1.125,-0.3125 1.5625,-0.8125 0.4375,-0.5 0.4375,-1.46875 v -36.09375 q 0,-0.96875 -0.4375,-1.46875 -0.4375,-0.5 -1.5625,-0.8125 v -1 h 37.75 q 0.9375,0 1.4375,-0.4375 0.5,-0.4375 0.8125,-1.59375 h 1 v 11.03125 h -1 q -0.3125,-1.125 -0.8125,-1.53125 -0.5,-0.4375 -1.4375,-0.4375 h -26.4375 v 10.1875 h 17.28125 q 0.96875,0 1.46875,-0.4375 0.5,-0.46875 0.8125,-1.59375 h 1 v 10.78125 h -1 q -0.3125,-1.09375 -0.8125,-1.53125 -0.5,-0.4375 -1.46875,-0.4375 z"
           id="path42117" />
        <path
           d="m -147.6348,186.85348 h -19.375 l -2.875,6 q -0.59375,1.25 -0.59375,1.96875 0,1.375 2.09375,1.90625 v 1 h -14.125 v -1 q 1.25,-0.25 1.90625,-0.875 0.65625,-0.625 1.5,-2.4375 l 15.6875,-32.78125 q 0.75,-1.5625 0.75,-2.5 0,-1.4375 -1.8125,-2.0625 v -1 h 15.125 v 1 q -1.84375,0.53125 -1.84375,1.84375 0,0.90625 0.59375,2.0625 l 16.25,32.875 q 1.03125,2.09375 1.8125,2.875 0.78125,0.75 2.09375,1 v 1 h -15.6875 v -1 q 2.0625,-0.34375 2.0625,-1.9375 0,-0.65625 -0.625,-1.9375 z m -2.6875,-5.84375 -6.90625,-15.1875 -7,15.1875 z"
           id="path42119" />
        <path
           d="m -72.05085,158.35348 v 23.90625 q 0,6.78125 -2.5,10.15625 -4.5,6.0625 -18.59375,6.0625 -10.1875,0 -15.59375,-3.28125 -3.15625,-1.90625 -4.375,-5.1875 -1.1875,-3.25 -1.1875,-7.75 v -23.90625 q 0,-0.96875 -0.4375,-1.46875 -0.4375,-0.5 -1.5625,-0.8125 v -1 h 13.34375 v 1 q -1.125,0.28125 -1.59375,0.8125 -0.4375,0.5 -0.4375,1.46875 v 21.28125 q 0,3.6875 0.40625,5.46875 0.40625,1.75 1.53125,2.9375 3,3.1875 10.25,3.1875 7.28125,0 10.28125,-3.1875 1.09375,-1.1875 1.5,-2.9375 0.40625,-1.78125 0.40625,-5.46875 v -21.28125 q 0,-0.96875 -0.4375,-1.46875 -0.4375,-0.5 -1.5625,-0.8125 v -1 h 12.5625 v 1 q -1.125,0.3125 -1.5625,0.8125 -0.4375,0.5 -0.4375,1.46875 z"
           id="path42121" />
        <path
           d="m -23.373154,175.50973 12.90625,16.71875 q 2.1250003,2.75 3.0312503,3.5 0.9375,0.75 2.5625,1 v 1 H -21.779404 v -1 q 1.875,-0.375 1.875,-1.625 0,-0.65625 -1.125,-2.125 l -8.21875,-10.5625 -7.8125,10.21875 q -1.28125,1.65625 -1.28125,2.34375 0,1.5625 2.09375,1.75 v 1 h -16.375 v -1 q 1.4375,-0.15625 2.21875,-0.8125 0.8125,-0.65625 3.21875,-3.6875 l 12.875,-16.25 -11.84375,-15.5 q -2.3125,-3.03125 -3.09375,-3.625 -0.75,-0.625 -2.4375,-0.78125 l -0.03125,-1 h 17.125 v 1 q -1.875,0.5 -1.875,1.90625 0,0.75 1.34375,2.5 l 6.6875,8.59375 6.78125,-8.59375 q 1.5,-1.90625 1.5,-2.6875 0,-1.375 -2.15625,-1.71875 v -1 h 16.6562503 v 1 q -1.5,0.15625 -2.15625,0.6875 -0.625,0.5 -3.2812503,3.71875 z"
           id="path42123" />
      </g>
      <g
         aria-label="EST."
         transform="matrix(0.32794384,0,0,0.28500622,113.50249,-40.347272)"
         id="text19415"
         style="font-size:40px;line-height:1.25;font-family:'Copperplate Gothic Light';-inkscape-font-specification:'Copperplate Gothic Light, Normal';white-space:pre;shape-inside:url(#rect19417)">
        <path
           d="m -622.75391,481.76389 v 9.90235 h 17.08985 q 0.82031,0 1.15234,-0.25391 0.35156,-0.25391 0.52735,-0.99609 h 0.625 v 5.03906 h -0.60547 q -0.19532,-0.74219 -0.54688,-0.9961 -0.33203,-0.2539 -1.15234,-0.2539 h -21.40625 v -0.625 q 0.76172,-0.19531 0.99609,-0.52735 0.25391,-0.33203 0.25391,-1.15234 v -22.05078 q 0,-0.82031 -0.25391,-1.15234 -0.2539,-0.33204 -0.99609,-0.52735 v -0.625 h 21.15234 q 0.82031,0 1.15235,-0.2539 0.33203,-0.25391 0.52734,-1.01563 h 0.625 v 5.03906 h -0.625 q -0.17578,-0.72265 -0.52734,-0.97656 -0.33204,-0.25391 -1.15235,-0.25391 h -16.83594 v 9.14063 h 11.03516 q 0.82031,0 1.15234,-0.25391 0.35157,-0.2539 0.52735,-0.99609 h 0.625 v 5.03906 h -0.625 q -0.17578,-0.74219 -0.52735,-0.99609 -0.33203,-0.25391 -1.15234,-0.25391 z"
           id="path42126" />
        <path
           d="m -573.26172,469.18577 -2.79297,5.03906 -0.54687,-0.29297 q 0.33203,-0.87891 0.33203,-1.09375 0,-0.58594 -1.44531,-1.26953 -3.92578,-1.83594 -8.32032,-1.83594 -3.61328,0 -6.28906,1.34766 -1.28906,0.66406 -2.05078,1.71875 -0.74219,1.05469 -0.74219,2.22656 0,0.97656 0.58594,1.85547 0.58594,0.85937 1.54297,1.28906 1.05469,0.48828 2.48047,0.6836 1.44531,0.17578 4.6875,0.27343 4.49219,0.13672 6.42578,0.42969 1.93359,0.27344 3.18359,0.97656 3.32032,1.85547 3.32032,5.64453 0,3.61329 -3.00782,5.91797 -3.33984,2.57813 -9.19922,2.57813 -3.3789,0 -5.89843,-0.6836 -2.51953,-0.68359 -6.01563,-2.51953 -0.97656,-0.44922 -1.15234,-0.44922 -0.29297,0 -0.91797,0.70313 l -0.52734,-0.33203 2.92968,-4.90235 0.54688,0.3125 q -0.3711,0.78125 -0.3711,1.05469 0,0.625 2.5,1.9336 2.2461,1.17187 4.31641,1.69921 2.08984,0.50782 4.53125,0.50782 4.94141,0 7.5,-2.16797 1.69922,-1.44531 1.69922,-3.4375 0,-2.61719 -2.91016,-3.61328 -0.9375,-0.33203 -1.95312,-0.41016 -0.9961,-0.0977 -5.70313,-0.27344 -3.35937,-0.13672 -5.27343,-0.50781 -1.89454,-0.37109 -3.37891,-1.21094 -1.38672,-0.78125 -2.20703,-2.1875 -0.80078,-1.40625 -0.80078,-3.0664 0,-2.83203 2.10937,-4.86328 1.5625,-1.48438 4.31641,-2.32422 2.7539,-0.85938 6.03515,-0.85938 2.67579,0 4.96094,0.52735 2.30469,0.52734 5.19531,1.8164 0.64454,0.27344 0.80079,0.27344 0.35156,0 0.95703,-0.78125 z"
           id="path42128" />
        <path
           d="m -555.46875,470.0842 v 21.81641 q 0,0.80078 0.25391,1.15234 0.2539,0.33204 0.99609,0.52735 v 0.625 h -5.56641 v -0.625 q 0.74219,-0.19531 0.9961,-0.52735 0.2539,-0.33203 0.2539,-1.15234 V 470.0842 h -9.02343 q -0.82032,0 -1.17188,0.25391 -0.33203,0.23438 -0.50781,0.97656 h -0.625 v -5.03906 h 0.625 q 0.17578,0.76172 0.50781,1.01563 0.35156,0.2539 1.17188,0.2539 h 21.11328 q 0.82031,0 1.15234,-0.2539 0.35156,-0.25391 0.52735,-1.01563 h 0.625 v 5.03906 h -0.625 q -0.17579,-0.74218 -0.52735,-0.97656 -0.33203,-0.25391 -1.15234,-0.25391 z"
           id="path42130" />
        <path
           d="m -541.79687,490.41624 q 0.89843,0 1.5039,0.625 0.625,0.625 0.625,1.52343 0,0.85938 -0.64453,1.48438 -0.625,0.625 -1.48437,0.625 -0.87891,0 -1.50391,-0.625 -0.625,-0.64453 -0.625,-1.50391 0,-0.8789 0.60547,-1.48437 0.625,-0.625 1.52344,-0.64453 z"
           id="path42132" />
      </g>
      <g
         aria-label="2021"
         transform="matrix(0.28500622,0,0,0.28500622,383.88564,-40.347272)"
         id="text22241"
         style="font-size:40px;line-height:1.25;font-family:'Copperplate Gothic Light';-inkscape-font-specification:'Copperplate Gothic Light, Normal';white-space:pre;shape-inside:url(#rect22243)">
        <path
           d="m -623.26172,475.80686 -4.0039,-3.90625 0.44921,-0.42969 q 0.76172,0.50782 1.15235,0.50782 0.21484,0 0.5664,-0.3711 4.25782,-4.53125 10.46875,-4.53125 4.16016,0 6.83594,2.14844 2.77344,2.20703 2.77344,5.64453 0,3.39844 -2.63672,5.64453 -1.81641,1.54297 -6.01562,3.61328 -3.20313,1.58203 -4.41407,2.30469 -1.1914,0.72266 -2.38281,1.83594 -1.66016,1.54297 -2.34375,3.39844 h 16.58203 q 0.82031,0 1.15235,-0.25391 0.35156,-0.25391 0.52734,-0.99609 h 0.625 v 5.03906 h -0.625 q -0.17578,-0.74219 -0.52734,-0.9961 -0.33204,-0.2539 -1.15235,-0.2539 h -18.32031 q -0.82031,0 -1.17188,0.2539 -0.33203,0.25391 -0.50781,0.9961 h -0.625 q 0.0195,-2.08985 0.60547,-3.67188 0.58594,-1.60156 1.95313,-3.32031 1.5039,-1.91406 3.63281,-3.39844 2.1289,-1.48437 5.97656,-3.30078 2.30469,-1.11328 3.35938,-1.77734 1.07421,-0.66406 1.89453,-1.54297 1.34765,-1.44531 1.34765,-3.35938 0,-2.1289 -1.5625,-3.51562 -2.05078,-1.83594 -5.37109,-1.83594 -3.75,0 -6.66016,2.46094 -1.67968,1.44531 -1.67968,2.07031 0,0.44922 0.52734,1.09375 z"
           id="path42135" />
        <path
           d="m -586.81641,467.07639 q 4.96094,0 8.51563,3.4961 1.85547,1.8164 2.94922,4.45312 1.17187,2.8125 1.17187,6.03516 0,4.02343 -2.1289,7.57812 -1.9336,3.20313 -5.15625,4.78516 -2.53907,1.25 -5.33203,1.25 -3.30079,0 -6.19141,-1.71875 -3.08594,-1.81641 -4.80469,-5.25391 -1.62109,-3.20312 -1.62109,-6.83594 0,-4.21875 2.1289,-7.7539 1.91407,-3.20313 5.15625,-4.78516 2.46094,-1.21094 5.3125,-1.25 z m 0,2.67578 q -4.14062,0 -6.95312,3.02735 -2.94922,3.16406 -2.94922,8.08593 0,4.92188 2.94922,8.10547 2.79297,3.02735 6.97266,3.02735 4.17968,0 6.97265,-3.02735 2.94922,-3.18359 2.94922,-7.94922 0,-5.11718 -2.94922,-8.24218 -2.8125,-2.98828 -6.99219,-3.02735 z"
           id="path42137" />
        <path
           d="m -565.64453,475.80686 -4.00391,-3.90625 0.44922,-0.42969 q 0.76172,0.50782 1.15235,0.50782 0.21484,0 0.5664,-0.3711 4.25781,-4.53125 10.46875,-4.53125 4.16016,0 6.83594,2.14844 2.77344,2.20703 2.77344,5.64453 0,3.39844 -2.63672,5.64453 -1.81641,1.54297 -6.01563,3.61328 -3.20312,1.58203 -4.41406,2.30469 -1.19141,0.72266 -2.38281,1.83594 -1.66016,1.54297 -2.34375,3.39844 h 16.58203 q 0.82031,0 1.15234,-0.25391 0.35157,-0.25391 0.52735,-0.99609 h 0.625 v 5.03906 h -0.625 q -0.17578,-0.74219 -0.52735,-0.9961 -0.33203,-0.2539 -1.15234,-0.2539 h -18.32031 q -0.82032,0 -1.17188,0.2539 -0.33203,0.25391 -0.50781,0.9961 h -0.625 q 0.0195,-2.08985 0.60547,-3.67188 0.58594,-1.60156 1.95312,-3.32031 1.50391,-1.91406 3.63282,-3.39844 2.1289,-1.48437 5.97656,-3.30078 2.30469,-1.11328 3.35937,-1.77734 1.07422,-0.66406 1.89453,-1.54297 1.34766,-1.44531 1.34766,-3.35938 0,-2.1289 -1.5625,-3.51562 -2.05078,-1.83594 -5.37109,-1.83594 -3.75,0 -6.66016,2.46094 -1.67969,1.44531 -1.67969,2.07031 0,0.44922 0.52735,1.09375 z"
           id="path42139" />
        <path
           d="m -534.10156,472.34983 q -1.64063,1.01562 -2.8711,1.19141 -0.54687,0.0781 -0.68359,0.23437 -0.13672,0.13672 -0.27344,0.78125 h -0.625 v -5 h 0.625 q 0.11719,0.87891 0.21485,1.03516 0.0976,0.15625 0.48828,0.15625 0.91797,0 2.05078,-0.6836 1.13281,-0.68359 1.13281,-1.25 0,-0.39062 -1.09375,-0.60547 v -0.66406 h 5.21485 v 0.66406 q -0.74219,0.17579 -0.9961,0.50782 -0.2539,0.33203 -0.2539,1.13281 v 22.05078 q 0,0.80078 0.2539,1.13281 0.25391,0.3125 0.9961,0.50782 v 0.66406 h -5.42969 v -0.66406 q 0.74219,-0.17579 0.99609,-0.50782 0.25391,-0.33203 0.25391,-1.13281 z"
           id="path42141" />
      </g>
    </g>
  </g>
</svg>
